<?xml version="1.0" encoding="UTF-8" standalone="no"?>
<!DOCTYPE svg PUBLIC "-//W3C//DTD SVG 1.1//EN"
 "http://www.w3.org/Graphics/SVG/1.1/DTD/svg11.dtd">
<!-- Generated by graphviz version 5.0.0 (20220707.1540)
 -->
<!-- Title: dependencies Pages: 1 -->
<svg width="588pt" height="247pt"
 viewBox="0.00 0.00 588.00 246.80" xmlns="http://www.w3.org/2000/svg" xmlns:xlink="http://www.w3.org/1999/xlink">
<g id="graph0" class="graph" transform="scale(1 1) rotate(0) translate(4 242.8)">
<title>dependencies</title>
<polygon fill="white" stroke="transparent" points="-4,4 -4,-242.8 584,-242.8 584,4 -4,4"/>
<text text-anchor="middle" x="290" y="-8.2" font-family="sans-serif" font-size="14.00">dependencies</text>
<g id="clust1" class="cluster">
<title>cluster_AuthModule</title>
<polygon fill="none" stroke="black" stroke-dasharray="1,5" points="8,-32.8 8,-230.8 572,-230.8 572,-32.8 8,-32.8"/>
</g>
<g id="clust3" class="cluster">
<title>cluster_AuthModule_imports</title>
<polygon fill="none" stroke="black" points="462,-40.8 462,-92.8 564,-92.8 564,-40.8 462,-40.8"/>
</g>
<g id="clust4" class="cluster">
<title>cluster_AuthModule_exports</title>
<polygon fill="none" stroke="black" points="267,-170.8 267,-222.8 373,-222.8 373,-170.8 267,-170.8"/>
</g>
<g id="clust6" class="cluster">
<title>cluster_AuthModule_providers</title>
<polygon fill="none" stroke="black" points="16,-40.8 16,-92.8 454,-92.8 454,-40.8 16,-40.8"/>
</g>
<!-- UserModule -->
<g id="node1" class="node">
<title>UserModule</title>
<polygon fill="#8dd3c7" stroke="black" points="555.99,-84.8 552.99,-88.8 531.99,-88.8 528.99,-84.8 470.01,-84.8 470.01,-48.8 555.99,-48.8 555.99,-84.8"/>
<text text-anchor="middle" x="513" y="-62.6" font-family="Times,serif" font-size="14.00">UserModule</text>
</g>
<!-- AuthModule -->
<g id="node2" class="node">
<title>AuthModule</title>
<polygon fill="#8dd3c7" stroke="black" points="363.55,-149.8 360.55,-153.8 339.55,-153.8 336.55,-149.8 276.45,-149.8 276.45,-113.8 363.55,-113.8 363.55,-149.8"/>
<text text-anchor="middle" x="320" y="-127.6" font-family="Times,serif" font-size="14.00">AuthModule</text>
</g>
<!-- UserModule&#45;&gt;AuthModule -->
<g id="edge1" class="edge">
<title>UserModule&#45;&gt;AuthModule</title>
<path fill="none" stroke="black" d="M513,-84.91C513,-104.14 513,-131.8 513,-131.8 513,-131.8 373.79,-131.8 373.79,-131.8"/>
<polygon fill="black" stroke="black" points="373.79,-128.3 363.79,-131.8 373.79,-135.3 373.79,-128.3"/>
</g>
<!-- AuthService  -->
<g id="node3" class="node">
<title>AuthService </title>
<polygon fill="#fb8072" stroke="black" points="364.98,-214.8 275.02,-214.8 275.02,-178.8 364.98,-178.8 364.98,-214.8"/>
<text text-anchor="middle" x="320" y="-192.6" font-family="Times,serif" font-size="14.00">AuthService </text>
</g>
<!-- AuthModule&#45;&gt;AuthService  -->
<g id="edge2" class="edge">
<title>AuthModule&#45;&gt;AuthService </title>
<path fill="none" stroke="black" stroke-dasharray="5,2" d="M320,-149.91C320,-149.91 320,-168.79 320,-168.79"/>
<polygon fill="black" stroke="black" points="316.5,-168.79 320,-178.79 323.5,-168.79 316.5,-168.79"/>
</g>
<!-- AuthService -->
<g id="node4" class="node">
<title>AuthService</title>
<ellipse fill="#fdb462" stroke="black" cx="387" cy="-66.8" rx="59.11" ry="18"/>
<text text-anchor="middle" x="387" y="-62.6" font-family="Times,serif" font-size="14.00">AuthService</text>
</g>
<!-- AuthService&#45;&gt;AuthModule -->
<g id="edge3" class="edge">
<title>AuthService&#45;&gt;AuthModule</title>
<path fill="none" stroke="black" d="M345.73,-79.95C345.73,-79.95 345.73,-103.49 345.73,-103.49"/>
<polygon fill="black" stroke="black" points="342.23,-103.49 345.73,-113.49 349.23,-103.49 342.23,-103.49"/>
</g>
<!-- JwtStrategy -->
<g id="node5" class="node">
<title>JwtStrategy</title>
<ellipse fill="#fdb462" stroke="black" cx="253" cy="-66.8" rx="56.77" ry="18"/>
<text text-anchor="middle" x="253" y="-62.6" font-family="Times,serif" font-size="14.00">JwtStrategy</text>
</g>
<!-- JwtStrategy&#45;&gt;AuthModule -->
<g id="edge4" class="edge">
<title>JwtStrategy&#45;&gt;AuthModule</title>
<path fill="none" stroke="black" d="M292.93,-79.64C292.93,-79.64 292.93,-103.32 292.93,-103.32"/>
<polygon fill="black" stroke="black" points="289.43,-103.32 292.93,-113.32 296.43,-103.32 289.43,-103.32"/>
</g>
<!-- PasswordService -->
<g id="node6" class="node">
<title>PasswordService</title>
<ellipse fill="#fdb462" stroke="black" cx="101" cy="-66.8" rx="77.03" ry="18"/>
<text text-anchor="middle" x="101" y="-62.6" font-family="Times,serif" font-size="14.00">PasswordService</text>
</g>
<!-- PasswordService&#45;&gt;AuthModule -->
<g id="edge5" class="edge">
<title>PasswordService&#45;&gt;AuthModule</title>
<path fill="none" stroke="black" d="M101,-84.91C101,-104.14 101,-131.8 101,-131.8 101,-131.8 266.21,-131.8 266.21,-131.8"/>
<polygon fill="black" stroke="black" points="266.21,-135.3 276.21,-131.8 266.21,-128.3 266.21,-135.3"/>
</g>
</g>
</svg>
